HIERARCHY
ROOT joint_Root
{
	OFFSET 0.0 0.0 0.0
	CHANNELS 6 Xposition Yposition Zposition Zrotation Xrotation Yrotation 
	JOINT Hips
	{
		OFFSET 4.5925 91.4895 -427.239
		CHANNELS 6 Xposition Yposition Zposition Zrotation Xrotation Yrotation 
		JOINT Spine
		{
			OFFSET 15.7357 0.0 0.0
			CHANNELS 6 Xposition Yposition Zposition Zrotation Xrotation Yrotation 
			JOINT Chest
			{
				OFFSET 8.98455 -0.406207 0.0
				CHANNELS 6 Xposition Yposition Zposition Zrotation Xrotation Yrotation 
				JOINT Neck
				{
					OFFSET 16.3773 0.0 0.0
					CHANNELS 6 Xposition Yposition Zposition Zrotation Xrotation Yrotation 
					JOINT Head
					{
						OFFSET 6.45672 0.0 0.0
						CHANNELS 6 Xposition Yposition Zposition Zrotation Xrotation Yrotation 
						End Site
						{
							OFFSET 0.0 0.0 0.0
						}
					}
				}
				JOINT Shoulder_L
				{
					OFFSET 12.9942 -0.242716 4.98039
					CHANNELS 6 Xposition Yposition Zposition Zrotation Xrotation Yrotation 
					JOINT UpperArm_L
					{
						OFFSET 5.34809 0.0 0.0
						CHANNELS 6 Xposition Yposition Zposition Zrotation Xrotation Yrotation 
						JOINT LowerArm_L
						{
							OFFSET 24.3286 1.87007e-05 0.0
							CHANNELS 6 Xposition Yposition Zposition Zrotation Xrotation Yrotation 
							JOINT Hand_L
							{
								OFFSET 22.2916 0.0 0.0
								CHANNELS 6 Xposition Yposition Zposition Zrotation Xrotation Yrotation 
								End Site
								{
									OFFSET 0.0 0.0 0.0
								}
							}
						}
					}
				}
				JOINT Shoulder_R
				{
					OFFSET 12.9945 -0.242716 -4.98039
					CHANNELS 6 Xposition Yposition Zposition Zrotation Xrotation Yrotation 
					JOINT UpperArm_R
					{
						OFFSET -5.34813 0.0 0.0
						CHANNELS 6 Xposition Yposition Zposition Zrotation Xrotation Yrotation 
						JOINT LowerArm_R
						{
							OFFSET -24.3289 0.000322201 0.0
							CHANNELS 6 Xposition Yposition Zposition Zrotation Xrotation Yrotation 
							JOINT Hand_R
							{
								OFFSET -22.2915 -0.000108084 0.0
								CHANNELS 6 Xposition Yposition Zposition Zrotation Xrotation Yrotation 
								End Site
								{
									OFFSET 0.0 0.0 0.0
								}
							}
						}
					}
				}
			}
		}
		JOINT UpperLeg_L
		{
			OFFSET -2.19248 -6.46944 0.0
			CHANNELS 6 Xposition Yposition Zposition Zrotation Xrotation Yrotation 
			JOINT LowerLeg_L
			{
				OFFSET 39.0811 0.0 -1.23785e-05
				CHANNELS 6 Xposition Yposition Zposition Zrotation Xrotation Yrotation 
				JOINT Foot_L
				{
					OFFSET 40.9854 0.0 -1.26872e-05
					CHANNELS 6 Xposition Yposition Zposition Zrotation Xrotation Yrotation 
					JOINT Toes_L
					{
						OFFSET 11.7543 0.0 0.0
						CHANNELS 6 Xposition Yposition Zposition Zrotation Xrotation Yrotation 
						End Site
						{
							OFFSET 0.0 0.0 0.0
						}
					}
				}
			}
		}
		JOINT UpperLeg_R
		{
			OFFSET -2.19251 6.46944 0.0
			CHANNELS 6 Xposition Yposition Zposition Zrotation Xrotation Yrotation 
			JOINT LowerLeg_R
			{
				OFFSET -39.0811 -0.00228153 -0.0401928
				CHANNELS 6 Xposition Yposition Zposition Zrotation Xrotation Yrotation 
				JOINT Foot_R
				{
					OFFSET -40.9854 0.0 0.0
					CHANNELS 6 Xposition Yposition Zposition Zrotation Xrotation Yrotation 
					JOINT Toes_R
					{
						OFFSET -11.7543 0.0 0.0
						CHANNELS 6 Xposition Yposition Zposition Zrotation Xrotation Yrotation 
						End Site
						{
							OFFSET 0.0 0.0 0.0
						}
					}
				}
			}
		}
	}
}
MOTION
Frames:	7
Frame Time:	0.0333333
0.000000 0.000000 0.000000 0.000000 0.000000 -0.000000 0.610964 92.183900 -52.381800 87.520400 3.761390 -1.579910 15.735700 0.000005 -0.000001 40.535800 81.827100 -39.129200 8.984550 -0.406207 -0.000000 3.076950 -12.468200 3.154790 16.377300 -0.000001 -0.000001 1.344070 0.902188 -1.467490 6.456720 -0.000001 -0.000000 -4.022660 7.443040 0.000136 12.994200 -0.242716 4.980390 -86.407800 -10.252800 -70.571900 5.348090 -0.000007 -0.000001 -55.891700 29.242900 -56.496500 24.328600 0.000019 0.000005 15.512300 -10.676000 -123.722000 22.291600 -0.000001 0.000005 10.491900 5.480120 -5.752930 12.994500 -0.242716 -4.980390 91.395700 -4.509720 -72.783700 -5.348130 -0.000001 -0.000004 -61.739100 44.733200 33.584900 -24.328900 0.000322 -0.000009 -8.994890 0.271252 -91.712000 -22.291500 -0.000108 -0.000004 10.015200 5.618640 -12.527100 -2.192480 -6.469440 -0.000000 -176.235000 -11.348900 1.905880 39.081100 -0.000007 -0.000012 0.002163 -0.006464 18.499700 40.985400 -0.000006 -0.000013 5.458410 6.513880 -67.257700 11.754300 -0.000000 0.000003 -2.151340 -2.571300 -20.949800 -2.192510 6.469440 -0.000001 -177.997000 2.811060 147.625000 -39.081100 -0.002282 -0.040193 0.020542 -0.015390 48.325300 -40.985400 0.000008 0.000006 6.653840 -4.903370 -55.848300 -11.754300 -0.000006 -0.000006 -0.021529 -0.175617 -23.751100
0.000000 0.000000 0.000000 0.000000 0.000000 -0.000000 0.646346 91.702800 -47.758900 88.515000 4.084130 -1.912110 15.735700 0.000005 -0.000001 39.355000 81.470100 -38.028100 8.984550 -0.406207 -0.000000 3.283390 -13.229100 3.040860 16.377300 -0.000001 -0.000001 0.731056 1.241620 -1.051190 6.456720 -0.000001 -0.000000 -4.501330 7.834580 0.365636 12.994200 -0.242716 4.980390 -85.691200 -11.778700 -69.741100 5.348090 -0.000007 -0.000001 -52.281300 28.287800 -59.288100 24.328600 0.000019 0.000005 13.581600 -9.600930 -124.620000 22.291600 -0.000001 0.000005 10.137600 5.472840 -5.476690 12.994500 -0.242716 -4.980390 92.034000 -6.667390 -72.991600 -5.348130 -0.000001 -0.000004 -63.009900 40.480800 36.414600 -24.328900 0.000322 -0.000009 -8.459910 0.741085 -94.968300 -22.291500 -0.000108 -0.000004 10.597900 5.613120 -12.159700 -2.192480 -6.469440 -0.000000 -175.027000 -15.597700 4.526440 39.081100 -0.000007 -0.000012 -0.017823 0.051367 19.134900 40.985400 -0.000006 -0.000013 5.002510 12.164200 -66.507000 11.754300 -0.000000 0.000003 -1.549300 -1.715590 -23.870500 -2.192510 6.469440 -0.000001 -178.361000 6.131080 147.620000 -39.081100 -0.002282 -0.040193 0.016883 -0.018633 36.115000 -40.985400 0.000008 0.000006 1.602610 0.382662 -57.888600 -11.754300 -0.000006 -0.000006 -0.022712 -0.181871 -24.009200
0.000000 0.000000 0.000000 0.000000 0.000000 -0.000000 0.503868 90.577400 -42.785800 89.535100 4.654650 -1.282900 15.735700 0.000005 -0.000001 41.375200 81.198000 -40.336500 8.984550 -0.406207 -0.000000 4.081470 -13.224300 2.555440 16.377300 -0.000001 -0.000001 0.434036 1.008940 -0.638556 6.456720 -0.000001 -0.000000 -5.219150 7.362650 1.567610 12.994200 -0.242716 4.980390 -85.565600 -12.324700 -70.033300 5.348090 -0.000007 -0.000001 -49.768500 28.648100 -59.371400 24.328600 0.000019 0.000005 13.593000 -9.082040 -123.138000 22.291600 -0.000001 0.000005 9.096860 5.469970 -5.369320 12.994500 -0.242716 -4.980390 91.998900 -6.654110 -73.237500 -5.348130 -0.000001 -0.000004 -64.359600 36.321300 37.402500 -24.328900 0.000322 -0.000009 -8.223750 0.944300 -96.504000 -22.291500 -0.000108 -0.000004 11.734600 5.614830 -12.272100 -2.192480 -6.469440 -0.000000 -174.983000 -12.597700 6.425500 39.081100 -0.000007 -0.000012 -0.026736 0.063037 22.983700 40.985400 -0.000006 -0.000013 3.835350 11.290900 -67.532500 11.754300 -0.000000 0.000003 -0.027651 -0.206503 -25.031400 -2.192510 6.469440 -0.000001 -177.925000 10.036200 148.090000 -39.081100 -0.002282 -0.040193 0.003040 0.000470 29.288300 -40.985400 0.000008 0.000006 -0.196447 3.588000 -61.026100 -11.754300 -0.000006 -0.000006 -0.022802 -0.182344 -24.028700
0.000000 0.000000 0.000000 0.000000 0.000000 -0.000000 0.095285 89.166400 -37.310300 90.210400 5.106150 -0.506675 15.735700 0.000005 -0.000001 44.742900 81.234600 -43.915500 8.984550 -0.406207 -0.000000 4.755920 -12.450900 2.177010 16.377300 -0.000001 -0.000001 0.266138 0.405825 -0.332726 6.456720 -0.000001 -0.000000 -5.232630 6.569360 2.088720 12.994200 -0.242716 4.980390 -86.407300 -10.711900 -71.335300 5.348090 -0.000007 -0.000001 -48.237000 30.786800 -56.146300 24.328600 0.000019 0.000005 14.183200 -8.212210 -119.475000 22.291600 -0.000001 0.000005 7.996540 5.464280 -5.157980 12.994500 -0.242716 -4.980390 91.298300 -4.390690 -73.509400 -5.348130 -0.000001 -0.000004 -65.350200 32.932900 35.953100 -24.328900 0.000322 -0.000009 -7.593350 0.833883 -96.228600 -22.291500 -0.000108 -0.000004 12.843600 5.618010 -12.483800 -2.192480 -6.469440 -0.000000 -174.642000 -9.590660 8.161900 39.081100 -0.000007 -0.000012 -0.031206 0.059047 27.856600 40.985400 -0.000006 -0.000013 2.533960 10.713800 -68.049700 11.754300 -0.000000 0.000003 -0.064897 -0.347384 -30.941700 -2.192510 6.469440 -0.000001 -176.252000 14.552500 147.625000 -39.081100 -0.002282 -0.040193 0.002355 0.001641 29.995000 -40.985400 0.000008 0.000006 -0.006476 1.124800 -63.717700 -11.754300 -0.000006 -0.000006 -0.023444 -0.185668 -24.165900
0.000000 0.000000 0.000000 0.000000 0.000000 -0.000000 -0.548228 87.805800 -31.458500 89.984700 5.303370 -0.376588 15.735700 0.000005 -0.000001 47.576300 81.828900 -46.520300 8.984550 -0.406207 -0.000000 4.467980 -11.036800 2.546490 16.377300 -0.000001 -0.000001 0.922737 -0.284171 -0.400636 6.456720 -0.000001 -0.000000 -4.700590 5.798520 1.380520 12.994200 -0.242716 4.980390 -88.141800 -6.202740 -73.288600 5.348090 -0.000007 -0.000001 -48.225700 34.387900 -48.706500 24.328600 0.000019 0.000005 16.128100 -7.164880 -113.332000 22.291600 -0.000001 0.000005 8.220530 5.462610 -5.096460 12.994500 -0.242716 -4.980390 90.019000 -0.066106 -73.983200 -5.348130 -0.000001 -0.000004 -65.274600 30.840600 32.133100 -24.328900 0.000322 -0.000009 -7.758860 0.416471 -93.052500 -22.291500 -0.000108 -0.000004 14.271100 5.628570 -13.226300 -2.192480 -6.469440 -0.000000 -172.482000 -9.528640 8.681130 39.081100 -0.000007 -0.000012 -0.018485 0.027732 33.686900 40.985400 -0.000006 -0.000013 1.535620 12.518900 -65.815500 11.754300 -0.000000 0.000003 -0.163318 -0.580392 -41.210300 -2.192510 6.469440 -0.000001 -174.034000 17.675600 145.688000 -39.081100 -0.002282 -0.040193 -0.010442 0.018363 36.784100 -40.985400 0.000008 0.000006 6.327130 -1.487140 -60.737100 -11.754300 -0.000006 -0.000006 -0.027213 -0.204395 -24.940300
0.000000 0.000000 0.000000 0.000000 0.000000 -0.000000 -1.206790 86.450900 -24.934100 89.854300 6.065180 1.319540 15.735700 0.000005 -0.000001 50.867000 82.064600 -49.618200 8.984550 -0.406207 -0.000000 4.713930 -10.031800 2.913590 16.377300 -0.000001 -0.000001 1.667090 -0.794909 -0.386116 6.456720 -0.000001 -0.000000 -3.528130 5.051870 0.158067 12.994200 -0.242716 4.980390 -89.892000 -0.380284 -74.145200 5.348090 -0.000007 -0.000001 -51.640200 37.449800 -36.555100 24.328600 0.000019 0.000005 16.561600 -4.463520 -104.664000 22.291600 -0.000001 0.000005 9.224580 5.481000 -5.786200 12.994500 -0.242716 -4.980390 88.290400 6.160970 -74.457900 -5.348130 -0.000001 -0.000004 -62.899600 31.274100 25.633500 -24.328900 0.000322 -0.000009 -8.396380 -0.387384 -87.375700 -22.291500 -0.000108 -0.000004 18.145400 5.649370 -14.930200 -2.192480 -6.469440 -0.000000 -170.854000 -8.211480 8.080360 39.081100 -0.000007 -0.000012 0.062858 -0.067980 42.757100 40.985400 -0.000006 -0.000013 1.256400 12.112900 -57.487900 11.754300 -0.000000 0.000003 -0.353407 -0.853870 -54.745600 -2.192510 6.469440 -0.000001 -174.965000 18.485400 146.871000 -39.081100 -0.002282 -0.040193 -0.142011 0.142295 45.593500 -40.985400 0.000008 0.000006 6.401250 -1.778340 -63.088600 -11.754300 -0.000006 -0.000006 -0.015402 -0.140334 -22.299400
0.000000 0.000000 0.000000 0.000000 0.000000 -0.000000 -2.040920 85.239700 -18.772700 88.961700 5.137740 3.790980 15.735700 0.000005 -0.000001 59.342100 82.067100 -57.674700 8.984550 -0.406207 -0.000000 6.049360 -8.093740 3.763740 16.377300 -0.000001 -0.000001 1.569760 -0.616925 -0.533349 6.456720 -0.000001 -0.000000 -3.195620 3.654910 -0.362372 12.994200 -0.242716 4.980390 -91.010600 3.336930 -73.141400 5.348090 -0.000007 -0.000001 -58.944700 37.344600 -22.675800 24.328600 0.000019 0.000005 13.242100 -0.192326 -90.809200 22.291600 -0.000001 0.000005 10.240800 5.522960 -7.485610 12.994500 -0.242716 -4.980390 86.716300 12.431400 -75.075900 -5.348130 -0.000001 -0.000004 -58.404600 34.421000 15.522600 -24.328900 0.000322 -0.000009 -9.954590 -0.770654 -85.615400 -22.291500 -0.000108 -0.000004 22.371400 5.651040 -15.117500 -2.192480 -6.469440 -0.000000 -169.380000 -7.719210 4.068210 39.081100 -0.000007 -0.000012 0.181918 -0.123339 55.862200 40.985400 -0.000006 -0.000013 1.805720 8.388540 -43.617500 11.754300 -0.000000 0.000003 -0.251285 -0.724201 -48.049400 -2.192510 6.469440 -0.000001 -174.966000 15.457000 150.697000 -39.081100 -0.002282 -0.040193 -0.150653 0.119091 52.265000 -40.985400 0.000008 0.000006 7.497850 -4.599500 -70.613800 -11.754300 -0.000006 -0.000006 -0.003551 -0.046689 -18.472100
